HIERARCHY
ROOT pelvis
{
  OFFSET 0 100 0
  CHANNELS 6 Xposition Yposition Zposition Zrotation Xrotation Yrotation
  JOINT pelvis_right_femur
  {
    OFFSET -10.78128 -3.44521 -0.5502486
    CHANNELS 3 Zrotation Xrotation Yrotation
    JOINT right_femur_tibia
    {
      OFFSET -0.8047443 -44.0398 -0.1307829
      CHANNELS 3 Zrotation Xrotation Yrotation
      JOINT right_tibia_foot
      {
        OFFSET 3.006224 -47.83518 -5
        CHANNELS 3 Zrotation Xrotation Yrotation
        End Site
        {
          OFFSET 0 -5 15
        }
      }
    }
  }
  JOINT pelvis_left_femur
  {
    OFFSET 10.78128 -3.44521 -0.5502486
    CHANNELS 3 Zrotation Xrotation Yrotation
    JOINT left_femur_tibia
    {
      OFFSET 0.8047443 -44.0398 -0.1307829
      CHANNELS 3 Zrotation Xrotation Yrotation
      JOINT left_tibia_foot
      {
        OFFSET -4.370144 -48.10324 -4.275266
        CHANNELS 3 Zrotation Xrotation Yrotation
        End Site
        {
          OFFSET 0 -5 15
        }
      }
    }
  }
  JOINT pelvis_spine1
  {
    OFFSET 0 6.468898 -3.129235
    CHANNELS 3 Zrotation Xrotation Yrotation
    JOINT spine1
    {
      OFFSET 0 23.15396 4.99043
      CHANNELS 3 Zrotation Xrotation Yrotation
      JOINT spine2
      {
        OFFSET 0 20.79997 -5.064912
        CHANNELS 3 Zrotation Xrotation Yrotation
        JOINT neck
        {
          OFFSET 0 14.38658 9.616178
          CHANNELS 3 Zrotation Xrotation Yrotation
          End Site
          {
            OFFSET 0 20 0
          }
        }
      }
      JOINT right_manubrium
      {
        OFFSET -5.722621 16.35077 3.967754
        CHANNELS 3 Zrotation Xrotation Yrotation
        JOINT right_clavicle
        {
          OFFSET -13.16364 1.694482 -4.693211
          CHANNELS 3 Zrotation Xrotation Yrotation
          JOINT right_humerus
          {
            OFFSET -28.5034 -0.3100689 -2.792744
            CHANNELS 3 Zrotation Xrotation Yrotation
            JOINT right_radius
            {
              OFFSET -25.15693 0.02248979 -1.271978
              CHANNELS 3 Zrotation Xrotation Yrotation
              End Site
              {
                OFFSET -15 0 0
              }
            }
          }
        }
      }
      JOINT left_manubrium
      {
        OFFSET 5.722621 16.35077 3.967754
        CHANNELS 3 Zrotation Xrotation Yrotation
        JOINT left_clavicle
        {
          OFFSET 13.16364 1.694482 -4.693211
          CHANNELS 3 Zrotation Xrotation Yrotation
          JOINT left_humerus
          {
            OFFSET 29.39168 -1.063119 -2.237045
            CHANNELS 3 Zrotation Xrotation Yrotation
            JOINT left_radius
            {
              OFFSET 24.59957 -0.9528479 0.9047498
              CHANNELS 3 Zrotation Xrotation Yrotation
              End Site
              {
                OFFSET 15 -0 -0
              }
            }
          }
        }
      }
    }
  }
}
MOTION
Frames: 13
Frame Time: 0.0416666666667
0 103.5113 0 1.278513 -0.7692179 0.1254481 2.914425 -16.70192 7.951901 -0 36.06638 -0 -5.057266 -16.06265 -3.302323 -7.177223 11.88175 -23.27283 -0 4.738981 -0 5.949724 -18.37111 25.03772 -2.436859 -3.011246 5.267431 2.797891 10.86852 -8.086407 1.179815 21.35448 6.670442 2.517201 -26.00017 9.832673 3.953235 -22.19167 12.41932 86.05461 32.44426 -17.38578 -0 0 18.94287 -10.27426 8.347779 4.385006 6.651596 -20.44186 0.06822338 -94.19877 19.65198 23.93938 0 0 -9.751382 15.39473 16.37971 -6.961307
0.2173859 103.4057 1.567816 0.4393555 -0.2007781 0.1421999 4.011484 -19.79792 8.398619 -0 36.33486 -0 -5.240214 -14.99178 -3.553748 -6.414497 11.95784 -23.14521 -0 5.080979 -0 3.629749 -19.98152 23.97749 -2.474265 -2.815368 4.978977 2.959093 10.68675 -8.190661 1.056479 21.18503 7.115985 2.786669 -26.25383 9.97762 4.082355 -21.71255 12.4822 86.18194 32.77433 -17.68353 -0 0 18.14398 -10.20089 8.440869 4.577491 6.730118 -20.57921 0.07136047 -93.64761 19.55359 22.98218 0 0 -10.96273 15.28068 15.8043 -6.810011
0.4381145 103.118 3.501289 -0.2309842 0.5444078 0.1314035 5.081727 -24.40204 7.721388 -0 32.60636 -0 -5.828619 -12.74349 -3.183459 -5.940173 12.24119 -21.85543 -0 5.561099 -0 4.13305 -20.99435 23.26599 -2.500688 -2.678931 4.792332 3.069441 10.45052 -8.250445 0.9822252 20.9275 7.480743 3.074894 -26.41716 10.07775 4.53489 -20.98738 12.40079 86.23309 33.75928 -18.24393 -0 0 17.00701 -9.700629 8.678887 4.806473 6.815933 -20.76958 -0.003341349 -93.04213 19.99064 21.99291 0 0 -13.00843 14.83836 15.03549 -5.698339
0.6664358 102.6197 5.826805 -0.6849627 1.235351 0.1357901 5.772384 -28.26346 6.96519 -0 28.42982 -0 -6.265828 -10.65861 -2.844006 -5.644546 12.61171 -20.56416 -0 5.89908 -0 4.533451 -21.97177 22.39822 -2.482391 -2.456385 4.560677 3.171127 10.24129 -8.318281 0.8680406 20.71976 7.873719 3.351695 -26.59633 10.15186 4.706465 -20.40405 12.37575 86.41495 34.28273 -18.64721 -0 0 16.03745 -9.600389 8.885133 5.073883 6.880876 -20.92716 -0.05166898 -92.40404 20.11546 20.9972 0 0 -14.60681 14.50834 14.2718 -5.049944
0.9007699 101.9084 8.642611 -0.9145578 2.084059 0.2243599 6.178752 -31.72058 6.048483 -0 23.3712 -0 -6.49232 -8.523572 -2.390255 -5.596743 13.15042 -19.21108 -0 6.355493 -0 5.226091 -22.79234 21.49781 -2.45112 -2.255235 4.330483 3.289831 10.0176 -8.406891 0.775134 20.49171 8.221371 3.607237 -26.76117 10.21798 4.917446 -19.78695 12.32699 86.63183 34.87569 -19.16721 -0 0 15.00716 -9.368889 9.118662 5.301129 6.950914 -21.10664 -0.1155408 -91.71905 20.2927 19.93185 0 0 -16.41231 14.19922 13.51673 -4.336614
1.130392 101.0262 12.0253 -1.021576 2.89587 0.459861 6.383606 -34.31871 5.05794 -0 18.41502 -0 -6.656566 -6.308041 -1.922978 -5.658408 13.87529 -17.88962 -0 7.304745 -0 5.543985 -23.37775 20.37 -2.39992 -2.043931 4.086281 3.421203 9.7903 -8.507284 0.6863465 20.27901 8.546455 3.839105 -26.94021 10.28282 5.052114 -19.21859 12.28481 86.88918 35.31708 -19.68185 -0 0 14.04528 -9.164209 9.331351 5.487049 7.019511 -21.27226 -0.1625666 -91.04074 20.39367 18.86063 0 0 -18.10323 13.97202 12.81714 -3.797861
1.342514 100.0772 16.03764 -1.150377 3.573734 0.891145 6.623187 -35.85449 4.229126 -0 14.44209 -0 -6.889825 -4.086137 -1.52673 -5.668287 14.71352 -16.64891 -0 9.164202 -0 5.087656 -23.49013 18.8768 -2.336704 -1.847019 3.840117 3.567439 9.558385 -8.623611 0.613301 20.06651 8.831135 4.04294 -27.1163 10.34465 5.174505 -18.66817 12.23743 87.17159 35.71901 -20.24382 -0 0 13.10892 -8.8965 9.540958 5.624108 7.088624 -21.44012 -0.2079633 -90.3563 20.47789 17.77332 0 0 -19.81613 13.80454 12.17294 -3.326687
1.526701 99.21379 20.71069 -1.438871 3.955186 1.519174 7.097155 -36.049 3.744541 -0 12.26646 -0 -7.336153 -2.115604 -1.267305 -5.448409 15.47954 -15.48749 -0 12.41127 -0 3.56934 -22.73009 16.89372 -2.261971 -1.658223 3.601143 3.713795 9.331933 -8.741703 0.551506 19.87003 9.077695 4.218515 -27.28552 10.39953 5.257402 -18.16299 12.18896 87.46486 36.0323 -20.79542 -0 0 12.24533 -8.628479 9.734231 5.72243 7.153388 -21.59575 -0.2455885 -89.70176 20.53228 16.72548 0 0 -21.42499 13.68648 11.59392 -2.947448
1.684901 98.62922 26.01757 -1.970769 3.953251 2.260306 7.899712 -34.7564 3.722221 -0 12.28072 -0 -8.034361 -0.8619744 -1.189086 -4.876443 15.818 -14.38958 -0 17.52281 -0 1.033302 -20.6593 14.45516 -2.180474 -1.483699 3.394502 3.831641 9.13234 -8.843441 0.5004826 19.70314 9.274433 4.362901 -27.41522 10.43097 5.298224 -17.71947 12.13341 87.75799 36.26485 -21.29625 -0 0 11.47753 -8.425798 9.916378 5.808719 7.207151 -21.73532 -0.287078 -89.106 20.58608 15.78306 0 0 -22.84868 13.56882 11.07015 -2.595066
1.839426 98.52077 31.84996 -2.684197 3.587392 2.927829 8.858511 -32.01611 4.055161 -0 14.04392 -0 -8.874892 -0.7765688 -1.292438 -3.998681 15.22093 -13.30568 -0 24.85241 -0 -1.973761 -17.06926 11.86635 -2.099693 -1.329342 3.257552 3.874501 8.995768 -8.899034 0.457172 19.5938 9.40596 4.471418 -27.45741 10.41417 5.276388 -17.37454 12.06356 88.03817 36.39692 -21.66848 -0 0 10.8559 -8.417407 10.0888 5.926232 7.239844 -21.8475 -0.347007 -88.62373 20.67544 15.05795 0 0 -23.90871 13.38034 10.58922 -2.196021
2.027503 99.02298 38.01672 -3.315426 2.988015 3.291154 9.544568 -28.0754 4.433603 -0 16.1958 -0 -9.607116 -1.923482 -1.520765 -3.096675 13.17276 -12.18554 -0 34.27945 -0 -4.549564 -12.39152 9.650035 -2.032733 -1.209829 3.235989 3.789997 8.967579 -8.878567 0.4206088 19.56902 9.448044 4.535387 -27.3448 10.31688 5.183398 -17.16531 11.97063 88.29138 36.4324 -21.83752 -0 0 10.42701 -8.744627 10.26241 6.13313 7.238626 -21.92566 -0.4511622 -88.30353 20.84597 14.66864 0 0 -24.44174 13.03296 10.13021 -1.640417
2.270649 100.124 44.27655 -3.477481 2.225964 3.203673 9.519487 -23.22885 4.53819 -0 17.18066 -0 -9.989763 -3.769124 -1.766953 -2.550036 9.424944 -11.04803 -0 44.7742 -0 -5.956728 -7.790208 8.351002 -1.992361 -1.134709 3.361659 3.549322 9.077232 -8.762097 0.3914886 19.64242 9.382066 4.547115 -27.02524 10.11445 5.024816 -17.11354 11.85482 88.48247 36.37893 -21.73765 -0 0 10.22964 -9.501957 10.44701 6.480892 7.189431 -21.96135 -0.6188146 -88.17118 21.10961 14.68856 0 0 -24.357 12.46574 9.676284 -0.849761
2.54013 101.6257 50.39172 -2.922782 1.146786 2.703693 8.680917 -17.66201 4.270609 -0 16.36901 -0 -9.969287 -5.542233 -1.939525 -2.515437 4.195885 -9.994011 -0 54.31903 -0 -6.119216 -4.575096 8.349265 -1.980914 -1.090772 3.627427 3.174843 9.308723 -8.54886 0.3708733 19.80284 9.213468 4.508707 -26.50355 9.807624 4.817487 -17.20409 11.73037 88.54934 36.22907 -21.3297 -0 0 10.27582 -10.66934 10.63957 6.985284 7.081814 -21.93934 -0.8427894 -88.21162 21.41942 15.08714 0 0 -23.70143 11.68504 9.222342 0.1642107
